<svg width="11" height="11" viewBox="0 0 11 11" fill="none" xmlns="http://www.w3.org/2000/svg">
<path d="M0.19299 9.8198L4.51943 5.5L0.19299 1.1802C0.067756 1.05073 -0.00154042 0.877335 2.59892e-05 0.697351C0.0015924 0.517367 0.0738962 0.345198 0.201364 0.217926C0.328832 0.0906531 0.501266 0.0184601 0.681526 0.0168961C0.861786 0.0153321 1.03545 0.0845223 1.16511 0.209564L5.49155 4.52937L9.81799 0.209564C9.88141 0.144001 9.95727 0.0917063 10.0411 0.0557304C10.125 0.0197544 10.2152 0.00081795 10.3065 2.59182e-05C10.3978 -0.000766114 10.4883 0.016602 10.5728 0.0511171C10.6573 0.0856322 10.7341 0.136603 10.7986 0.201055C10.8632 0.265507 10.9142 0.34215 10.9488 0.426512C10.9834 0.510874 11.0008 0.601265 11 0.69241C10.9992 0.783556 10.9802 0.873631 10.9442 0.95738C10.9082 1.04113 10.8558 1.11688 10.7901 1.1802L6.46368 5.5L10.7901 9.8198C10.8558 9.88312 10.9082 9.95887 10.9442 10.0426C10.9802 10.1264 10.9992 10.2164 11 10.3076C11.0008 10.3987 10.9834 10.4891 10.9488 10.5735C10.9142 10.6578 10.8632 10.7345 10.7986 10.7989C10.7341 10.8634 10.6573 10.9144 10.5728 10.9489C10.4883 10.9834 10.3978 11.0008 10.3065 11C10.2152 10.9992 10.125 10.9802 10.0411 10.9443C9.95727 10.9083 9.88141 10.856 9.81799 10.7904L5.49155 6.47063L1.16511 10.7904C1.03545 10.9155 0.861786 10.9847 0.681526 10.9831C0.501266 10.9815 0.328832 10.9093 0.201364 10.7821C0.0738962 10.6548 0.0015924 10.4826 2.59892e-05 10.3026C-0.00154042 10.1227 0.067756 9.94927 0.19299 9.8198Z" fill="#6F6F6F"/>
</svg>
